<mxfile host="app.diagrams.net" modified="2022-09-22T08:46:54.155Z" agent="5.0 (Macintosh; Intel Mac OS X 10_15_7) AppleWebKit/537.36 (KHTML, like Gecko) Chrome/105.0.0.0 Safari/537.36" etag="dezGKMQTgadqeP6KZMhR" version="20.3.3" type="github">
  <diagram id="p_LxvQXhGV9DOHsNAZXa" name="Page-1">
    <mxGraphModel dx="1426" dy="794" grid="1" gridSize="10" guides="1" tooltips="1" connect="1" arrows="1" fold="1" page="1" pageScale="1" pageWidth="850" pageHeight="1100" math="0" shadow="0">
      <root>
        <mxCell id="0" />
        <mxCell id="1" parent="0" />
        <mxCell id="Y_9VovuDxhxg9TztB7sc-3" value="" style="rounded=0;whiteSpace=wrap;html=1;fillColor=#f5f5f5;fontColor=#333333;strokeColor=#666666;" vertex="1" parent="1">
          <mxGeometry x="155" y="190" width="315" height="350" as="geometry" />
        </mxCell>
        <mxCell id="Y_9VovuDxhxg9TztB7sc-21" value="&lt;font color=&quot;#000000&quot;&gt;p2p network&lt;/font&gt;" style="shape=delay;whiteSpace=wrap;html=1;fontSize=13;fontColor=#FF6666;" vertex="1" parent="1">
          <mxGeometry x="420" y="235" width="100" height="50" as="geometry" />
        </mxCell>
        <mxCell id="Y_9VovuDxhxg9TztB7sc-4" value="&lt;font style=&quot;font-size: 16px;&quot;&gt;Beacon Chain&lt;/font&gt;" style="rounded=1;whiteSpace=wrap;html=1;fillColor=#dae8fc;strokeColor=#6c8ebf;" vertex="1" parent="1">
          <mxGeometry x="202" y="220" width="220" height="80" as="geometry" />
        </mxCell>
        <mxCell id="Y_9VovuDxhxg9TztB7sc-5" value="&lt;font style=&quot;font-size: 16px;&quot;&gt;Execution Chain&lt;/font&gt;" style="rounded=1;whiteSpace=wrap;html=1;fillColor=#f8cecc;strokeColor=#b85450;" vertex="1" parent="1">
          <mxGeometry x="202.5" y="440" width="220" height="80" as="geometry" />
        </mxCell>
        <mxCell id="Y_9VovuDxhxg9TztB7sc-9" value="" style="endArrow=none;html=1;rounded=0;strokeColor=#FF6666;strokeWidth=2;fontSize=16;entryX=0.25;entryY=1;entryDx=0;entryDy=0;exitX=0.25;exitY=0;exitDx=0;exitDy=0;" edge="1" parent="1" source="Y_9VovuDxhxg9TztB7sc-5" target="Y_9VovuDxhxg9TztB7sc-4">
          <mxGeometry width="50" height="50" relative="1" as="geometry">
            <mxPoint x="264" y="4" as="sourcePoint" />
            <mxPoint x="610" y="260" as="targetPoint" />
          </mxGeometry>
        </mxCell>
        <mxCell id="Y_9VovuDxhxg9TztB7sc-10" value="&lt;font style=&quot;font-size: 13px;&quot;&gt;JWT authentication&lt;/font&gt;" style="text;html=1;strokeColor=none;fillColor=none;align=center;verticalAlign=middle;whiteSpace=wrap;rounded=0;fontSize=16;fontColor=#FF6666;" vertex="1" parent="1">
          <mxGeometry x="190" y="355" width="70" height="40" as="geometry" />
        </mxCell>
        <mxCell id="Y_9VovuDxhxg9TztB7sc-12" value="" style="endArrow=classic;html=1;rounded=0;strokeColor=#000000;strokeWidth=2;fontSize=13;entryX=0.75;entryY=1;entryDx=0;entryDy=0;exitX=0.75;exitY=0;exitDx=0;exitDy=0;dashed=1;dashPattern=1 1;" edge="1" parent="1" source="Y_9VovuDxhxg9TztB7sc-5" target="Y_9VovuDxhxg9TztB7sc-4">
          <mxGeometry width="50" height="50" relative="1" as="geometry">
            <mxPoint x="361" y="460" as="sourcePoint" />
            <mxPoint x="280" y="410" as="targetPoint" />
          </mxGeometry>
        </mxCell>
        <mxCell id="Y_9VovuDxhxg9TztB7sc-13" value="" style="endArrow=classic;html=1;rounded=0;strokeColor=#000000;strokeWidth=2;fontSize=13;exitX=0.606;exitY=1;exitDx=0;exitDy=0;exitPerimeter=0;entryX=0.602;entryY=-0.017;entryDx=0;entryDy=0;entryPerimeter=0;" edge="1" parent="1" source="Y_9VovuDxhxg9TztB7sc-4" target="Y_9VovuDxhxg9TztB7sc-5">
          <mxGeometry width="50" height="50" relative="1" as="geometry">
            <mxPoint x="322.5" y="410" as="sourcePoint" />
            <mxPoint x="288" y="400" as="targetPoint" />
          </mxGeometry>
        </mxCell>
        <mxCell id="Y_9VovuDxhxg9TztB7sc-14" value="Call Engine API" style="text;html=1;strokeColor=none;fillColor=none;align=center;verticalAlign=middle;whiteSpace=wrap;rounded=0;fontSize=13;" vertex="1" parent="1">
          <mxGeometry x="277" y="360" width="70" height="30" as="geometry" />
        </mxCell>
        <mxCell id="Y_9VovuDxhxg9TztB7sc-20" value="Return Results" style="text;html=1;strokeColor=none;fillColor=none;align=center;verticalAlign=middle;whiteSpace=wrap;rounded=0;fontSize=13;" vertex="1" parent="1">
          <mxGeometry x="360" y="360" width="60" height="30" as="geometry" />
        </mxCell>
        <mxCell id="Y_9VovuDxhxg9TztB7sc-23" value="&lt;font color=&quot;#000000&quot;&gt;p2p network&lt;/font&gt;" style="shape=delay;whiteSpace=wrap;html=1;fontSize=13;fontColor=#FF6666;" vertex="1" parent="1">
          <mxGeometry x="422.5" y="455" width="100" height="50" as="geometry" />
        </mxCell>
        <mxCell id="Y_9VovuDxhxg9TztB7sc-24" value="" style="endArrow=classic;html=1;rounded=0;strokeColor=#000000;strokeWidth=1.5;fontSize=13;fontColor=#000000;dashed=1;exitX=1;exitY=0.5;exitDx=0;exitDy=0;" edge="1" parent="1" source="Y_9VovuDxhxg9TztB7sc-21">
          <mxGeometry width="50" height="50" relative="1" as="geometry">
            <mxPoint x="720" y="330" as="sourcePoint" />
            <mxPoint x="600" y="200" as="targetPoint" />
          </mxGeometry>
        </mxCell>
        <mxCell id="Y_9VovuDxhxg9TztB7sc-25" value="" style="endArrow=classic;html=1;rounded=0;strokeColor=#000000;strokeWidth=1.5;fontSize=13;fontColor=#000000;dashed=1;exitX=1;exitY=0.5;exitDx=0;exitDy=0;" edge="1" parent="1" source="Y_9VovuDxhxg9TztB7sc-21">
          <mxGeometry width="50" height="50" relative="1" as="geometry">
            <mxPoint x="530" y="270" as="sourcePoint" />
            <mxPoint x="600" y="260" as="targetPoint" />
          </mxGeometry>
        </mxCell>
        <mxCell id="Y_9VovuDxhxg9TztB7sc-26" value="" style="endArrow=classic;html=1;rounded=0;strokeColor=#000000;strokeWidth=1.5;fontSize=13;fontColor=#000000;dashed=1;exitX=1;exitY=0.5;exitDx=0;exitDy=0;" edge="1" parent="1" source="Y_9VovuDxhxg9TztB7sc-21">
          <mxGeometry width="50" height="50" relative="1" as="geometry">
            <mxPoint x="530" y="270" as="sourcePoint" />
            <mxPoint x="600" y="320" as="targetPoint" />
          </mxGeometry>
        </mxCell>
        <mxCell id="Y_9VovuDxhxg9TztB7sc-28" value="" style="endArrow=classic;html=1;rounded=0;strokeColor=#000000;strokeWidth=1.5;fontSize=13;fontColor=#000000;dashed=1;exitX=1;exitY=0.5;exitDx=0;exitDy=0;" edge="1" parent="1">
          <mxGeometry width="50" height="50" relative="1" as="geometry">
            <mxPoint x="522.5" y="480" as="sourcePoint" />
            <mxPoint x="602.5" y="420" as="targetPoint" />
          </mxGeometry>
        </mxCell>
        <mxCell id="Y_9VovuDxhxg9TztB7sc-29" value="" style="endArrow=classic;html=1;rounded=0;strokeColor=#000000;strokeWidth=1.5;fontSize=13;fontColor=#000000;dashed=1;exitX=1;exitY=0.5;exitDx=0;exitDy=0;" edge="1" parent="1">
          <mxGeometry width="50" height="50" relative="1" as="geometry">
            <mxPoint x="522.5" y="480" as="sourcePoint" />
            <mxPoint x="602.5" y="480" as="targetPoint" />
          </mxGeometry>
        </mxCell>
        <mxCell id="Y_9VovuDxhxg9TztB7sc-30" value="" style="endArrow=classic;html=1;rounded=0;strokeColor=#000000;strokeWidth=1.5;fontSize=13;fontColor=#000000;dashed=1;exitX=1;exitY=0.5;exitDx=0;exitDy=0;" edge="1" parent="1">
          <mxGeometry width="50" height="50" relative="1" as="geometry">
            <mxPoint x="522.5" y="480" as="sourcePoint" />
            <mxPoint x="602.5" y="540" as="targetPoint" />
          </mxGeometry>
        </mxCell>
        <mxCell id="Y_9VovuDxhxg9TztB7sc-31" value="Broadcast attestations and slashings" style="text;html=1;strokeColor=none;fillColor=none;align=center;verticalAlign=middle;whiteSpace=wrap;rounded=0;fontSize=13;fontColor=#000000;" vertex="1" parent="1">
          <mxGeometry x="600" y="242.5" width="140" height="35" as="geometry" />
        </mxCell>
        <mxCell id="Y_9VovuDxhxg9TztB7sc-32" value="Broadcast transactions and state" style="text;html=1;strokeColor=none;fillColor=none;align=center;verticalAlign=middle;whiteSpace=wrap;rounded=0;fontSize=13;fontColor=#000000;" vertex="1" parent="1">
          <mxGeometry x="600" y="462.5" width="140" height="35" as="geometry" />
        </mxCell>
      </root>
    </mxGraphModel>
  </diagram>
</mxfile>
